<?xml version="1.0" encoding="UTF-8"?>
<svg width="541" height="400" fill="none" viewBox="0 0 767 490" xmlns="http://www.w3.org/2000/svg">
<g clipPath="url(#clip0_2_147)">
<path d="m183.55 477.67h10.988l5.227-42.334-16.216 1e-3 1e-3 42.333z" fill="#A0616A"/>
<path d="m180.75 474.08 21.638-1e-3h1e-3c3.657 1e-3 7.164 1.452 9.75 4.035s4.039 6.087 4.04 9.74v0.447l-35.428 2e-3 -1e-3 -14.223z" fill="#2F2E41"/>
<path d="m256.13 477.67h10.987l5.228-42.334-16.217 1e-3 2e-3 42.333z" fill="#A0616A"/>
<path d="m253.33 474.08 21.638-1e-3h1e-3c3.657 1e-3 7.165 1.452 9.751 4.035s4.039 6.087 4.039 9.74v0.447l-35.428 2e-3 -1e-3 -14.223z" fill="#2F2E41"/>
<path d="m524.92 488.37h-494.28v1.629h494.28v-1.629z" fill="#E6E6E6"/>
<path d="m174.35 468.49h28.462l18.192-159.12 33.448 159.12h19.204v-189.74l-91.308-27.297-7.998 217.04z" fill="#2F2E41"/>
<path d="m222.88 111.44c13.708 0 24.821-11.101 24.821-24.795 0-13.694-11.113-24.794-24.821-24.794s-24.821 11.101-24.821 24.794c0 13.694 11.113 24.795 24.821 24.795z" fill="#A0616A"/>
<path d="m184.35 255.44c26.633 20.807 56.031 31.294 89.309 27.297-14.055-49.295-18.223-98.217-4.665-146.47l-27.993-12.65-31.465-1.997-22.869 6.719c-3.217 0.946-6.034 2.923-8.016 5.625s-3.02 5.98-2.954 9.33c0.808 41.15-1.931 79.661 8.653 112.14z" fill="#E6E6E6"/>
<path d="m199.13 74.182c2.388-4.5005 5.422-13.47 10.242-15.134 2.677-0.8865 5.443-1.4752 8.249-1.7553l8.192 3.1475-4.459-3.464c0.868-0.0517 1.736-0.0939 2.603-0.1267l5.528 2.1236-2.828-2.1971c5.153-0.0528 10.472 0.4824 14.465 3.6161 3.404 2.6714 6.776 12.791 7.322 17.081 0.583 4.1036 0.379 8.2806-0.602 12.308l-1.399 1.3296c-0.49-1.1215-0.858-2.2922-1.099-3.492-0.501-2.2417-1.465-4.3545-2.83-6.2035-1.364-1.8491-3.099-3.394-5.094-4.5361l-0.077-0.043c-2.347-1.3199-5.196-1.259-7.889-1.1622l-12.786 0.4596c-3.077 0.1106-6.389 0.305-8.788 2.2327-1.619 1.3018-2.59 3.2235-3.513 5.0842-1.192 2.4028-3.521 11.465-3.521 11.465s-1.317-1.7107-1.949-0.4374c-1.012-3.322-1.628-6.752-1.834-10.219-0.201-3.4819 0.511-6.956 2.067-10.078z" fill="#2F2E41"/>
<path d="m717.89 234.29h-286.54c-4.899-6e-3 -9.597-1.952-13.061-5.413s-5.413-8.153-5.419-13.047v-197.37c6e-3 -4.8941 1.955-9.5861 5.419-13.047 3.464-3.4606 8.162-5.4072 13.061-5.4127h286.54c4.899 0.0055132 9.596 1.9521 13.061 5.4127 3.464 3.4606 5.413 8.1527 5.418 13.047v197.37c-5e-3 4.894-1.954 9.586-5.418 13.047-3.465 3.461-8.162 5.407-13.061 5.413zm-286.54-232.66c-4.467 0.00506-8.75 1.7798-11.908 4.935-3.159 3.1552-4.936 7.4331-4.941 11.895v197.37c5e-3 4.463 1.782 8.74 4.941 11.896 3.158 3.155 7.441 4.93 11.908 4.935h286.54c4.467-5e-3 8.749-1.78 11.908-4.935 3.158-3.156 4.935-7.433 4.94-11.896v-197.37c-5e-3 -4.4621-1.782-8.74-4.94-11.895-3.159-3.1552-7.441-4.93-11.908-4.935h-286.54z" fill="#F0F0F0"/>
<path d="m382.69 250.86v-197.37c5e-3 -4.6781 1.868-9.1632 5.18-12.471 3.311-3.3079 7.801-5.1687 12.484-5.1739h286.54c4.683 0.0052 9.173 1.866 12.485 5.1739 3.311 3.3079 5.174 7.793 5.179 12.471v197.37c-5e-3 4.678-1.868 9.163-5.179 12.471-3.312 3.308-7.802 5.169-12.485 5.174h-286.54c-4.683-5e-3 -9.173-1.866-12.484-5.174-3.312-3.308-5.175-7.793-5.18-12.471z" fill="#E4E4E4"/>
<path d="m393.96 251.21v-198.07c2e-3 -1.4421 0.576-2.8246 1.597-3.8443 1.02-1.0197 2.404-1.5933 3.848-1.595h288.44c1.443 0.0017 2.827 0.5753 3.848 1.595s1.595 2.4022 1.597 3.8443v198.07c-2e-3 1.442-0.576 2.825-1.597 3.844-1.021 1.02-2.405 1.594-3.848 1.595h-288.44c-1.443-1e-3 -2.828-0.575-3.848-1.595-1.021-1.019-1.595-2.402-1.597-3.844z" fill="#F4F4F4"/>
<path d="m509.94 443.61c4.433 0 8.027-3.59 8.027-8.018 0-4.429-3.594-8.019-8.027-8.019s-8.027 3.59-8.027 8.019c0 4.428 3.594 8.018 8.027 8.018z" fill="#E6E6E6"/>
<path d="m543.38 443.61c4.434 0 8.028-3.59 8.028-8.018 0-4.429-3.594-8.019-8.028-8.019-4.433 0-8.027 3.59-8.027 8.019 0 4.428 3.594 8.018 8.027 8.018z" fill="#E6E6E6"/>
<path d="m576.83 443.61c4.433 0 8.027-3.59 8.027-8.018 0-4.429-3.594-8.019-8.027-8.019s-8.027 3.59-8.027 8.019c0 4.428 3.594 8.018 8.027 8.018z" fill="#E6E6E6"/>
<path d="m543.63 210.39c-11.527 0-22.794-3.414-32.378-9.811-9.583-6.396-17.053-15.488-21.464-26.126-4.411-10.637-5.565-22.342-3.316-33.635 2.248-11.292 7.799-21.665 15.949-29.807 8.15-8.141 18.534-13.686 29.839-15.932 11.305-2.2462 23.022-1.0934 33.671 3.3128 10.649 4.406 19.751 11.868 26.154 21.441 6.404 9.573 9.822 20.829 9.822 32.342-0.017 15.435-6.163 30.232-17.088 41.145-10.926 10.914-25.739 17.053-41.189 17.07z" fill="#16ABF8"/>
<path d="m566.62 146.43h-17.246v-17.228c-2e-3 -1.521-0.609-2.979-1.687-4.054s-2.538-1.679-4.061-1.679-2.984 0.604-4.062 1.679-1.685 2.533-1.687 4.054v17.228h-17.246c-1.523 2e-3 -2.983 0.608-4.059 1.685s-1.68 2.536-1.68 4.057c0 1.522 0.604 2.981 1.68 4.057 1.076 1.077 2.536 1.683 4.059 1.686h17.246v17.227c2e-3 1.522 0.609 2.98 1.687 4.055s2.539 1.678 4.062 1.678 2.983-0.603 4.061-1.678 1.685-2.533 1.687-4.055v-17.227h17.246c0.756 1e-3 1.504-0.145 2.203-0.433 0.698-0.287 1.333-0.709 1.868-1.242 0.535-0.532 0.96-1.165 1.25-1.862 0.291-0.696 0.441-1.443 0.442-2.198 1e-3 -0.754-0.147-1.502-0.435-2.199-0.289-0.698-0.712-1.332-1.245-1.866-0.534-0.534-1.168-0.957-1.866-1.247-0.697-0.289-1.445-0.438-2.201-0.438h-0.016z" fill="#F4F4F4"/>
<path d="m119.06 439.76c-1.267-8.163-3.74-16.094-7.338-23.532l-0.524-1.084-3.895 4.315 2.886-6.427-0.189-0.372c-2.547-5.037-5.37-9.929-8.455-14.655l-0.572-0.875-0.764 0.845 0.535-1.19-0.268-0.401c-3.8214-5.726-6.7573-9.347-6.7864-9.384l-0.8303-1.02-0.534 1.217c-0.0979 0.223-9.8017 22.559-11.087 44.631l-0.0203 0.344 6.5309 7.886-6.6604-4.177 0.0116 1.516c0.0202 2.594 0.197 5.184 0.5292 7.757 0.2933 2.213 0.6386 4.374 1.0357 6.482 0.6296 0.02 1.242 0.211 1.771 0.552-0.4601-2.356-0.8568-4.777-1.1903-7.263-0.2573-1.985-0.4194-4.002-0.4839-6.013l12.883 8.08-12.758-15.405c1.1615-18.661 8.371-37.462 10.395-42.424 1.0863 1.407 3.1355 4.139 5.5868 7.789l-4.4563 9.924 6.3537-7.037c2.754 4.283 5.291 8.701 7.602 13.239l-6.862 15.281 9.278-10.277c3.24 6.961 5.484 14.344 6.663 21.93 1.624 12.253 1.307 24.024-0.893 33.144-2.106 8.737-5.82 14.108-10.188 14.735-0.899 0.124-1.813 0.07-2.691-0.16-0.704 0.5-1.551 0.758-2.415 0.736h-0.238c1.355 0.752 2.874 1.159 4.423 1.187 0.383 0 0.765-0.027 1.144-0.082 5.135-0.737 9.237-6.42 11.547-16.002 2.249-9.327 2.579-21.327 0.924-33.81z" fill="#E6E6E6"/>
<path d="m104.68 489.01c-6.7175 0-16.402-3.691-26.009-10.41-1.4139-0.997-2.7641-2.082-4.0425-3.247l-1.0759-0.982 4.068-1.17-5.4168-0.198-0.2285-0.239c-10.153-10.623-16.472-25.627-16.535-25.776l-0.4938-1.186 1.2839 0.059c0.1278 5e-3 3.18 0.149 7.7673 0.799l0.2859 0.041v-3e-3l1.0059 0.153c3.7459 0.569 7.4568 1.348 11.115 2.333l0.3906 0.106 1.2205 3.003-0.1851-2.693 1.1197 0.323c5.3073 1.53 10.348 3.864 14.947 6.922 14.609 10.218 22.693 22.99 18.42 29.086-1.461 2.083-4.15 3.078-7.637 3.079zm-27.844-13.888c0.8924 0.755 1.821 1.474 2.7735 2.144 13.38 9.36 27.746 12.899 31.371 7.731 3.624-5.17-4.62-17.446-18.002-26.806-4.1285-2.744-8.6264-4.887-13.359-6.366l0.7236 10.522-4.753-11.694c-3.1302-0.83-6.3326-1.512-9.5385-2.034l0.5252 7.638-3.2713-8.049c-2.5345-0.347-4.5777-0.536-5.8205-0.632 1.6944 3.717 7.2931 15.194 15.443 23.823l14.948 0.547-11.04 3.176z" fill="#E6E6E6"/>
<path d="m199.96 271.7c-5e-3 -1.243-0.284-2.469-0.815-3.592-0.532-1.123-1.303-2.117-2.261-2.91-0.957-0.793-2.077-1.367-3.28-1.681s-2.461-0.361-3.685-0.137l-14.895-26.282-6.147 12.584 14.236 24.205c0.513 2.028 1.753 3.798 3.484 4.974 1.732 1.176 3.836 1.677 5.912 1.407 2.077-0.269 3.982-1.29 5.356-2.87 1.373-1.579 2.119-3.606 2.095-5.698z" fill="#A0616A"/>
<path d="m266.57 300.91c-0.588-1.095-0.928-2.306-0.997-3.546-0.069-1.241 0.135-2.481 0.598-3.635 0.463-1.153 1.173-2.191 2.081-3.04s1.991-1.489 3.174-1.875l0.55-30.197 12.957 8.878-2.51 27.314c0.518 2.027 0.273 4.173-0.688 6.032-0.961 1.858-2.571 3.3-4.525 4.052-1.955 0.752-4.117 0.762-6.078 0.028s-3.584-2.162-4.562-4.011z" fill="#A0616A"/>
<path d="m176.35 268.09 10.664-9.986-5.473-53.927 6.332-76.231c-13.754 4.318-28.522 15.918-30.955 30.113l-8.701 50.778 28.133 59.253z" fill="#E6E6E6"/>
<path d="m182.54 175.22-8.665 34.62 13.137 49.126-8.472-46.463 4-37.283z" fill="#000" opacity=".2"/>
<path d="m268.33 286.73 17.329 1.998-4.057-128.54c-0.182-5.744-2.015-11.313-5.281-16.044-3.266-4.73-7.826-8.421-13.136-10.631l-6.185-2.574 1.666 60.252 9.664 95.537z" fill="#E6E6E6"/>
<path d="m261.84 193.16 6.688 74.183-11.325-73.666 4.637-0.517z" fill="#000" opacity=".2"/>
<path d="m400.45 318.41c0.944 0.176 1.72 0.648 2.328 1.416s0.912 1.648 0.912 2.64c0 0.896-0.224 1.688-0.672 2.376-0.432 0.672-1.064 1.2-1.896 1.584s-1.816 0.576-2.952 0.576h-7.224v-16.752h6.912c1.136 0 2.112 0.184 2.928 0.552 0.832 0.368 1.456 0.88 1.872 1.536 0.432 0.656 0.648 1.4 0.648 2.232 0 0.976-0.264 1.792-0.792 2.448-0.512 0.656-1.2 1.12-2.064 1.392zm-6.144-1.248h3.072c0.8 0 1.416-0.176 1.848-0.528 0.432-0.368 0.648-0.888 0.648-1.56s-0.216-1.192-0.648-1.56-1.048-0.552-1.848-0.552h-3.072v4.2zm3.384 7.104c0.816 0 1.448-0.192 1.896-0.576 0.464-0.384 0.696-0.928 0.696-1.632 0-0.72-0.24-1.28-0.72-1.68-0.48-0.416-1.128-0.624-1.944-0.624h-3.312v4.512h3.384zm21.23-10.56v13.296h-3.384v-1.68c-0.432 0.576-1 1.032-1.704 1.368-0.688 0.32-1.44 0.48-2.256 0.48-1.04 0-1.96-0.216-2.76-0.648-0.8-0.448-1.432-1.096-1.896-1.944-0.448-0.864-0.672-1.888-0.672-3.072v-7.8h3.36v7.32c0 1.056 0.264 1.872 0.792 2.448 0.528 0.56 1.248 0.84 2.16 0.84 0.928 0 1.656-0.28 2.184-0.84 0.528-0.576 0.792-1.392 0.792-2.448v-7.32h3.384zm2.451 6.6c0-1.344 0.264-2.536 0.792-3.576 0.544-1.04 1.272-1.84 2.184-2.4 0.928-0.56 1.96-0.84 3.096-0.84 0.992 0 1.856 0.2 2.592 0.6 0.752 0.4 1.352 0.904 1.8 1.512v-1.896h3.384v13.296h-3.384v-1.944c-0.432 0.624-1.032 1.144-1.8 1.56-0.752 0.4-1.624 0.6-2.616 0.6-1.12 0-2.144-0.288-3.072-0.864-0.912-0.576-1.64-1.384-2.184-2.424-0.528-1.056-0.792-2.264-0.792-3.624zm10.464 0.048c0-0.816-0.16-1.512-0.48-2.088-0.32-0.592-0.752-1.04-1.296-1.344-0.544-0.32-1.128-0.48-1.752-0.48s-1.2 0.152-1.728 0.456-0.96 0.752-1.296 1.344c-0.32 0.576-0.48 1.264-0.48 2.064s0.16 1.504 0.48 2.112c0.336 0.592 0.768 1.048 1.296 1.368 0.544 0.32 1.12 0.48 1.728 0.48 0.624 0 1.208-0.152 1.752-0.456 0.544-0.32 0.976-0.768 1.296-1.344 0.32-0.592 0.48-1.296 0.48-2.112zm10.578-3.888v6.432c0 0.448 0.104 0.776 0.312 0.984 0.224 0.192 0.592 0.288 1.104 0.288h1.56v2.832h-2.112c-2.832 0-4.248-1.376-4.248-4.128v-6.408h-1.584v-2.76h1.584v-3.288h3.384v3.288h2.976v2.76h-2.976zm10.247 3.84c0-1.344 0.264-2.536 0.792-3.576 0.544-1.04 1.272-1.84 2.184-2.4 0.928-0.56 1.96-0.84 3.096-0.84 0.992 0 1.856 0.2 2.592 0.6 0.752 0.4 1.352 0.904 1.8 1.512v-1.896h3.384v13.296h-3.384v-1.944c-0.432 0.624-1.032 1.144-1.8 1.56-0.752 0.4-1.624 0.6-2.616 0.6-1.12 0-2.144-0.288-3.072-0.864-0.912-0.576-1.64-1.384-2.184-2.424-0.528-1.056-0.792-2.264-0.792-3.624zm10.464 0.048c0-0.816-0.16-1.512-0.48-2.088-0.32-0.592-0.752-1.04-1.296-1.344-0.544-0.32-1.128-0.48-1.752-0.48s-1.2 0.152-1.728 0.456-0.96 0.752-1.296 1.344c-0.32 0.576-0.48 1.264-0.48 2.064s0.16 1.504 0.48 2.112c0.336 0.592 0.768 1.048 1.296 1.368 0.544 0.32 1.12 0.48 1.728 0.48 0.624 0 1.208-0.152 1.752-0.456 0.544-0.32 0.976-0.768 1.296-1.344 0.32-0.592 0.48-1.296 0.48-2.112zm5.802 0c0-1.376 0.28-2.576 0.84-3.6 0.56-1.04 1.336-1.84 2.328-2.4 0.992-0.576 2.128-0.864 3.408-0.864 1.648 0 3.008 0.416 4.08 1.248 1.088 0.816 1.816 1.968 2.184 3.456h-3.624c-0.192-0.576-0.52-1.024-0.984-1.344-0.448-0.336-1.008-0.504-1.68-0.504-0.96 0-1.72 0.352-2.28 1.056-0.56 0.688-0.84 1.672-0.84 2.952 0 1.264 0.28 2.248 0.84 2.952 0.56 0.688 1.32 1.032 2.28 1.032 1.36 0 2.248-0.608 2.664-1.824h3.624c-0.368 1.44-1.096 2.584-2.184 3.432s-2.448 1.272-4.08 1.272c-1.28 0-2.416-0.28-3.408-0.84-0.992-0.576-1.768-1.376-2.328-2.4-0.56-1.04-0.84-2.248-0.84-3.624zm19.213-3.888v6.432c0 0.448 0.104 0.776 0.312 0.984 0.224 0.192 0.592 0.288 1.104 0.288h1.56v2.832h-2.112c-2.832 0-4.248-1.376-4.248-4.128v-6.408h-1.584v-2.76h1.584v-3.288h3.384v3.288h2.976v2.76h-2.976zm7.097-4.344c-0.592 0-1.088-0.184-1.488-0.552-0.384-0.384-0.576-0.856-0.576-1.416s0.192-1.024 0.576-1.392c0.4-0.384 0.896-0.576 1.488-0.576s1.08 0.192 1.464 0.576c0.4 0.368 0.6 0.832 0.6 1.392s-0.2 1.032-0.6 1.416c-0.384 0.368-0.872 0.552-1.464 0.552zm1.656 1.584v13.296h-3.36v-13.296h3.36zm8.864 10.2 3.36-10.2h3.576l-4.92 13.296h-4.08l-4.896-13.296h3.6l3.36 10.2zm10.527-11.784c-0.592 0-1.088-0.184-1.488-0.552-0.384-0.384-0.576-0.856-0.576-1.416s0.192-1.024 0.576-1.392c0.4-0.384 0.896-0.576 1.488-0.576s1.08 0.192 1.464 0.576c0.4 0.368 0.6 0.832 0.6 1.392s-0.2 1.032-0.6 1.416c-0.384 0.368-0.872 0.552-1.464 0.552zm1.656 1.584v13.296h-3.36v-13.296h3.36zm7.231 2.76v6.432c0 0.448 0.104 0.776 0.312 0.984 0.224 0.192 0.592 0.288 1.104 0.288h1.56v2.832h-2.112c-2.832 0-4.248-1.376-4.248-4.128v-6.408h-1.584v-2.76h1.584v-3.288h3.384v3.288h2.976v2.76h-2.976zm18.113-2.76-8.232 19.584h-3.576l2.88-6.624-5.328-12.96h3.768l3.432 9.288 3.48-9.288h3.576zm10.89 1.92c0.432-0.608 1.024-1.112 1.776-1.512 0.768-0.416 1.64-0.624 2.616-0.624 1.136 0 2.16 0.28 3.072 0.84 0.928 0.56 1.656 1.36 2.184 2.4 0.544 1.024 0.816 2.216 0.816 3.576s-0.272 2.568-0.816 3.624c-0.528 1.04-1.256 1.848-2.184 2.424-0.912 0.576-1.936 0.864-3.072 0.864-0.976 0-1.84-0.2-2.592-0.6-0.736-0.4-1.336-0.904-1.8-1.512v8.232h-3.36v-19.632h3.36v1.92zm7.032 4.68c0-0.8-0.168-1.488-0.504-2.064-0.32-0.592-0.752-1.04-1.296-1.344-0.528-0.304-1.104-0.456-1.728-0.456-0.608 0-1.184 0.16-1.728 0.48-0.528 0.304-0.96 0.752-1.296 1.344-0.32 0.592-0.48 1.288-0.48 2.088s0.16 1.496 0.48 2.088c0.336 0.592 0.768 1.048 1.296 1.368 0.544 0.304 1.12 0.456 1.728 0.456 0.624 0 1.2-0.16 1.728-0.48 0.544-0.32 0.976-0.776 1.296-1.368 0.336-0.592 0.504-1.296 0.504-2.112zm18.234-0.24c0 0.48-0.032 0.912-0.096 1.296h-9.72c0.08 0.96 0.416 1.712 1.008 2.256s1.32 0.816 2.184 0.816c1.248 0 2.136-0.536 2.664-1.608h3.624c-0.384 1.28-1.12 2.336-2.208 3.168-1.088 0.816-2.424 1.224-4.008 1.224-1.28 0-2.432-0.28-3.456-0.84-1.008-0.576-1.8-1.384-2.376-2.424-0.56-1.04-0.84-2.24-0.84-3.6 0-1.376 0.28-2.584 0.84-3.624s1.344-1.84 2.352-2.4 2.168-0.84 3.48-0.84c1.264 0 2.392 0.272 3.384 0.816 1.008 0.544 1.784 1.32 2.328 2.328 0.56 0.992 0.84 2.136 0.84 3.432zm-3.48-0.96c-0.016-0.864-0.328-1.552-0.936-2.064-0.608-0.528-1.352-0.792-2.232-0.792-0.832 0-1.536 0.256-2.112 0.768-0.56 0.496-0.904 1.192-1.032 2.088h6.312zm9.292-3.336c0.432-0.704 0.992-1.256 1.68-1.656 0.704-0.4 1.504-0.6 2.4-0.6v3.528h-0.888c-1.056 0-1.856 0.248-2.4 0.744-0.528 0.496-0.792 1.36-0.792 2.592v6.624h-3.36v-13.296h3.36v2.064zm10.255 0.696v6.432c0 0.448 0.104 0.776 0.312 0.984 0.224 0.192 0.592 0.288 1.104 0.288h1.56v2.832h-2.112c-2.832 0-4.248-1.376-4.248-4.128v-6.408h-1.584v-2.76h1.584v-3.288h3.384v3.288h2.976v2.76h-2.976zm4.529 3.84c0-1.344 0.264-2.536 0.792-3.576 0.544-1.04 1.272-1.84 2.184-2.4 0.928-0.56 1.96-0.84 3.096-0.84 0.992 0 1.856 0.2 2.592 0.6 0.752 0.4 1.352 0.904 1.8 1.512v-1.896h3.384v13.296h-3.384v-1.944c-0.432 0.624-1.032 1.144-1.8 1.56-0.752 0.4-1.624 0.6-2.616 0.6-1.12 0-2.144-0.288-3.072-0.864-0.912-0.576-1.64-1.384-2.184-2.424-0.528-1.056-0.792-2.264-0.792-3.624zm10.464 0.048c0-0.816-0.16-1.512-0.48-2.088-0.32-0.592-0.752-1.04-1.296-1.344-0.544-0.32-1.128-0.48-1.752-0.48s-1.2 0.152-1.728 0.456-0.96 0.752-1.296 1.344c-0.32 0.576-0.48 1.264-0.48 2.064s0.16 1.504 0.48 2.112c0.336 0.592 0.768 1.048 1.296 1.368 0.544 0.32 1.12 0.48 1.728 0.48 0.624 0 1.208-0.152 1.752-0.456 0.544-0.32 0.976-0.768 1.296-1.344 0.32-0.592 0.48-1.296 0.48-2.112zm23.178-6.84c1.632 0 2.944 0.504 3.936 1.512 1.008 0.992 1.512 2.384 1.512 4.176v7.8h-3.36v-7.344c0-1.04-0.264-1.832-0.792-2.376-0.528-0.56-1.248-0.84-2.16-0.84s-1.64 0.28-2.184 0.84c-0.528 0.544-0.792 1.336-0.792 2.376v7.344h-3.36v-7.344c0-1.04-0.264-1.832-0.792-2.376-0.528-0.56-1.248-0.84-2.16-0.84-0.928 0-1.664 0.28-2.208 0.84-0.528 0.544-0.792 1.336-0.792 2.376v7.344h-3.36v-13.296h3.36v1.608c0.432-0.56 0.984-1 1.656-1.32 0.688-0.32 1.44-0.48 2.256-0.48 1.04 0 1.968 0.224 2.784 0.672 0.816 0.432 1.448 1.056 1.896 1.872 0.432-0.768 1.056-1.384 1.872-1.848 0.832-0.464 1.728-0.696 2.688-0.696zm7.772 6.792c0-1.344 0.264-2.536 0.792-3.576 0.544-1.04 1.272-1.84 2.184-2.4 0.928-0.56 1.96-0.84 3.096-0.84 0.992 0 1.856 0.2 2.592 0.6 0.752 0.4 1.352 0.904 1.8 1.512v-1.896h3.384v13.296h-3.384v-1.944c-0.432 0.624-1.032 1.144-1.8 1.56-0.752 0.4-1.624 0.6-2.616 0.6-1.12 0-2.144-0.288-3.072-0.864-0.912-0.576-1.64-1.384-2.184-2.424-0.528-1.056-0.792-2.264-0.792-3.624zm10.464 0.048c0-0.816-0.16-1.512-0.48-2.088-0.32-0.592-0.752-1.04-1.296-1.344-0.544-0.32-1.128-0.48-1.752-0.48s-1.2 0.152-1.728 0.456-0.96 0.752-1.296 1.344c-0.32 0.576-0.48 1.264-0.48 2.064s0.16 1.504 0.48 2.112c0.336 0.592 0.768 1.048 1.296 1.368 0.544 0.32 1.12 0.48 1.728 0.48 0.624 0 1.208-0.152 1.752-0.456 0.544-0.32 0.976-0.768 1.296-1.344 0.32-0.592 0.48-1.296 0.48-2.112zm23.178-6.84c1.632 0 2.944 0.504 3.936 1.512 1.008 0.992 1.512 2.384 1.512 4.176v7.8h-3.36v-7.344c0-1.04-0.264-1.832-0.792-2.376-0.528-0.56-1.248-0.84-2.16-0.84s-1.64 0.28-2.184 0.84c-0.528 0.544-0.792 1.336-0.792 2.376v7.344h-3.36v-7.344c0-1.04-0.264-1.832-0.792-2.376-0.528-0.56-1.248-0.84-2.16-0.84-0.928 0-1.664 0.28-2.208 0.84-0.528 0.544-0.792 1.336-0.792 2.376v7.344h-3.36v-13.296h3.36v1.608c0.432-0.56 0.984-1 1.656-1.32 0.688-0.32 1.44-0.48 2.256-0.48 1.04 0 1.968 0.224 2.784 0.672 0.816 0.432 1.448 1.056 1.896 1.872 0.432-0.768 1.056-1.384 1.872-1.848 0.832-0.464 1.728-0.696 2.688-0.696zm21.188 0.192v13.296h-3.384v-1.68c-0.432 0.576-1 1.032-1.704 1.368-0.688 0.32-1.44 0.48-2.256 0.48-1.04 0-1.96-0.216-2.76-0.648-0.8-0.448-1.432-1.096-1.896-1.944-0.448-0.864-0.672-1.888-0.672-3.072v-7.8h3.36v7.32c0 1.056 0.264 1.872 0.792 2.448 0.528 0.56 1.248 0.84 2.16 0.84 0.928 0 1.656-0.28 2.184-0.84 0.528-0.576 0.792-1.392 0.792-2.448v-7.32h3.384z" fill="#555"/>
</g>
</svg>
